<svg width="34" height="24" viewBox="0 0 34 24" fill="none" xmlns="http://www.w3.org/2000/svg">
<path fill-rule="evenodd" clip-rule="evenodd" d="M2.63726 0C2.06527 0 1.60159 0.461166 1.60159 1.03004C1.60159 1.39349 1.79086 1.71298 2.07671 1.89632C2.26102 2.18082 2.58236 2.36921 2.94794 2.36921H17.9651C18.1716 2.36921 18.364 2.42935 18.5256 2.53298C18.6297 2.6936 18.69 2.88485 18.69 3.09013V18.5408H14.6344C14.0755 16.9226 12.532 15.7597 10.7154 15.7597C8.8988 15.7597 7.35529 16.9226 6.79645 18.5408H6.26208C6.05553 18.5408 5.8631 18.4806 5.70153 18.377C5.59748 18.2164 5.5371 18.0251 5.5371 17.8199V13.6997C5.5371 13.3362 5.34783 13.0168 5.06198 12.8334C4.87767 12.5489 4.55633 12.3605 4.19075 12.3605C3.61877 12.3605 3.15509 12.8217 3.15509 13.3906V17.5107C3.15509 18.4425 3.56971 19.2779 4.22547 19.8445C4.79513 20.4972 5.63548 20.91 6.57276 20.91H6.70331C7.16323 22.687 8.78515 24 10.7154 24C12.6457 24 14.2676 22.687 14.7275 20.91H22.2382C22.6982 22.687 24.3201 24 26.2504 24C28.1806 24 29.8025 22.687 30.2625 20.91H30.393C32.109 20.91 33.5 19.5265 33.5 17.8199V10.6096C33.5 10.4229 33.449 10.2397 33.3524 10.0796L29.2953 3.35446C29.1243 3.07107 28.9117 2.82117 28.6678 2.61064C28.0835 1.9404 27.2297 1.54507 26.3204 1.54507H20.4508C20.3184 1.36983 20.1678 1.20905 20.0017 1.06553C19.432 0.412777 18.5917 0 17.6544 0H2.63726ZM31.118 11.6396V17.5107C31.118 18.0509 30.7 18.4939 30.1681 18.5373C29.6083 16.9209 28.0657 15.7597 26.2504 15.7597C24.4337 15.7597 22.8902 16.9226 22.3314 18.5408H21.072V11.6396H31.118ZM27.1915 4.07813C27.027 3.97286 26.8332 3.91428 26.6311 3.91428H21.072V9.27039H30.3245L27.2085 4.10524C27.203 4.0961 27.1973 4.08706 27.1915 4.07813ZM26.2504 21.9399C25.1072 21.9399 24.1804 21.0189 24.179 19.8823L24.179 19.8798C24.179 18.7421 25.1064 17.8197 26.2504 17.8197C27.3943 17.8197 28.3217 18.7421 28.3217 19.8798C28.3217 21.0176 27.3943 21.9399 26.2504 21.9399ZM10.7154 21.9399C9.57176 21.9399 8.64458 21.0181 8.64409 19.8807C8.64409 18.743 9.57145 17.8197 10.7154 17.8197C11.8594 17.8197 12.7867 18.7421 12.7867 19.8798C12.7867 21.0176 11.8594 21.9399 10.7154 21.9399Z" fill="#94A3B8"/>
<path d="M3.46577 4.56962C3.46577 4.00075 3.92946 3.53958 4.50144 3.53958H10.7154C11.2874 3.53958 11.7511 4.00075 11.7511 4.56962C11.7511 5.1385 11.2874 5.59967 10.7154 5.59967H4.50144C3.92946 5.59967 3.46577 5.1385 3.46577 4.56962Z" fill="#94A3B8"/>
<path d="M1.53566 6.91067C0.963682 6.91067 0.5 7.37184 0.5 7.94071C0.5 8.50959 0.963682 8.97076 1.53566 8.97076H7.74964C8.32162 8.97076 8.7853 8.50959 8.7853 7.94071C8.7853 7.37184 8.32162 6.91067 7.74964 6.91067H1.53566Z" fill="#94A3B8"/>
<path d="M3.46577 11.3117C3.46577 10.7429 3.92946 10.2817 4.50144 10.2817H10.7154C11.2874 10.2817 11.7511 10.7429 11.7511 11.3117C11.7511 11.8806 11.2874 12.3418 10.7154 12.3418H4.50144C3.92946 12.3418 3.46577 11.8806 3.46577 11.3117Z" fill="#94A3B8"/>
</svg>
