<svg width="36" height="36" viewBox="0 0 36 36" fill="none" xmlns="http://www.w3.org/2000/svg">
<path d="M7.3191 27.4993L7.31887 27.4991C6.54114 26.9192 5.82512 26.0011 5.30316 24.9608C4.78115 23.9203 4.475 22.801 4.475 21.84V10.68C4.475 8.57743 6.0415 6.30517 8.0195 5.56854L8.02046 5.56818L15.505 2.76333C15.5051 2.7633 15.5052 2.76327 15.5053 2.76324C16.1763 2.51252 17.0695 2.37872 17.985 2.37872C18.9005 2.37872 19.7937 2.51252 20.4647 2.76324C20.4648 2.76327 20.4649 2.7633 20.465 2.76333L27.9495 5.56818L27.9505 5.56853C29.9285 6.30517 31.495 8.57743 31.495 10.68V21.825C31.495 22.7938 31.1887 23.913 30.667 24.9511C30.1453 25.9891 29.4294 26.9039 28.6511 27.4841L28.6509 27.4843L22.2009 32.2993L22.2009 32.2993L22.1947 32.304C21.0503 33.1864 19.5423 33.64 18 33.64C16.459 33.64 14.9468 33.187 13.7682 32.3136C13.768 32.3135 13.7679 32.3134 13.7677 32.3133L7.3191 27.4993ZM15.9502 3.94152L15.9495 3.94177L8.46454 6.74677L8.46384 6.74704C7.70709 7.03193 7.03252 7.63588 6.55056 8.33318C6.06843 9.03074 5.74 9.87816 5.74 10.695V21.84C5.74 22.6553 6.02267 23.5884 6.43613 24.4134C6.84947 25.2381 7.42579 26.019 8.07086 26.5006L8.0709 26.5006L14.5206 31.3154C15.4867 32.0379 16.757 32.3825 18.0019 32.3825C19.2469 32.3825 20.52 32.0379 21.4928 31.3166L21.4941 31.3156L27.9441 26.5006L27.945 26.5C28.5964 26.0114 29.1727 25.2313 29.5847 24.4073C29.9967 23.5833 30.275 22.6543 30.275 21.84V10.68C30.275 9.86964 29.9458 9.0259 29.4644 8.32943C28.9829 7.63271 28.3098 7.02654 27.556 6.73387L27.556 6.73384L27.5505 6.73177L20.0655 3.92677L20.0655 3.92668L20.0564 3.92348C19.4749 3.71824 18.7235 3.62488 18.0005 3.62685C17.2783 3.62882 16.5277 3.72605 15.9502 3.94152Z" fill="#94A3B8" stroke="#94A3B8"/>
<path d="M15.6364 18.9835L15.99 19.3371L16.3436 18.9835L21.9986 13.3285C22.2383 13.0888 22.6417 13.0888 22.8814 13.3285L23.234 12.976L22.8814 13.3285C23.1212 13.5683 23.1212 13.9717 22.8814 14.2114L16.4314 20.6614C16.3052 20.7877 16.1495 20.845 15.99 20.845C15.8305 20.845 15.6748 20.7877 15.5486 20.6614L13.1336 18.2464C12.8938 18.0067 12.8938 17.6033 13.1336 17.3635C13.3733 17.1238 13.7767 17.1238 14.0164 17.3635L15.6364 18.9835Z" fill="#94A3B8" stroke="#94A3B8"/>
</svg>
