<svg width="32" height="32" viewBox="0 0 32 32" fill="none" xmlns="http://www.w3.org/2000/svg">
<path d="M16 0.571411C24.5211 0.571411 31.4286 7.47891 31.4286 16C31.4286 24.5211 24.5211 31.4286 16 31.4286C7.47894 31.4286 0.571442 24.5211 0.571442 16C0.571442 7.47891 7.47894 0.571411 16 0.571411ZM16 3.14284C8.89901 3.14284 3.14287 8.89898 3.14287 16C3.14287 23.101 8.89901 28.8571 16 28.8571C23.101 28.8571 28.8572 23.101 28.8572 16C28.8572 8.89898 23.101 3.14284 16 3.14284ZM16.3684 7.18384V8.9112C18.9244 9.11627 20.7752 10.6495 20.8568 12.9702H18.7302C18.5972 11.6819 17.6772 10.9356 16.3684 10.7723V15.0357L16.8595 15.1578C19.5486 15.7821 21.0207 16.8865 21.0207 19.0638C21.0207 21.5691 18.9758 22.9898 16.3684 23.1743V24.8913H15.2132V23.1743C12.616 22.9795 10.5614 21.5176 10.4901 19.0638H12.6064C12.7902 20.2602 13.5674 21.1396 15.2132 21.3138V16.855L14.794 16.7521C12.1969 16.1498 10.7967 14.9843 10.7967 12.9085C10.7967 10.618 12.6366 9.10534 15.2132 8.91055V7.1832L16.3684 7.18384ZM16.3684 17.1211V21.3235C18.1169 21.1904 18.853 20.3624 18.853 19.2683C18.853 18.2153 18.2809 17.5917 16.3684 17.1211ZM15.2132 10.7723C13.741 10.9561 12.9638 11.8047 12.9638 12.7356C12.9638 13.6658 13.5777 14.3504 15.2138 14.7599L15.2132 10.7723Z" fill="#94A3B8"/>
</svg>
